<svg xmlns="http://www.w3.org/2000/svg" version="1.1" xmlns:xlink="http://www.w3.org/1999/xlink" xmlns:svgjs="http://svgjs.dev/svgjs" width="1440" height="560" preserveAspectRatio="none" viewBox="0 0 1440 560"><g mask="url(&quot;#SvgjsMask1006&quot;)" fill="none"><rect width="1440" height="560" x="0" y="0" fill="rgba(55, 65, 81, 1)"></rect><path d="M-75.05 357.12L-75.05 357.12" stroke="rgba(31, 41, 55, 1)" stroke-width="1.5"></path><path d="M-75.05 357.12L45.77 402.97" stroke="rgba(31, 41, 55, 1)" stroke-width="1.5"></path><path d="M-75.05 357.12L-103.97 545.32" stroke="rgba(31, 41, 55, 1)" stroke-width="1.5"></path><path d="M-75.05 357.12L99.52 542.95" stroke="rgba(31, 41, 55, 1)" stroke-width="1.5"></path><path d="M-75.05 357.12L224.38 408.31" stroke="rgba(31, 41, 55, 1)" stroke-width="1.5"></path><path d="M-103.97 545.32L-103.97 545.32" stroke="rgba(31, 41, 55, 1)" stroke-width="1.5"></path><path d="M-103.97 545.32L-79.13 709.36" stroke="rgba(31, 41, 55, 1)" stroke-width="1.5"></path><path d="M-103.97 545.32L38.99 661.54" stroke="rgba(31, 41, 55, 1)" stroke-width="1.5"></path><path d="M-103.97 545.32L99.52 542.95" stroke="rgba(31, 41, 55, 1)" stroke-width="1.5"></path><path d="M-103.97 545.32L45.77 402.97" stroke="rgba(31, 41, 55, 1)" stroke-width="1.5"></path><path d="M-103.97 545.32L241.8 497.44" stroke="rgba(31, 41, 55, 1)" stroke-width="1.5"></path><path d="M-79.13 709.36L-79.13 709.36" stroke="rgba(31, 41, 55, 1)" stroke-width="1.5"></path><path d="M-79.13 709.36L38.99 661.54" stroke="rgba(31, 41, 55, 1)" stroke-width="1.5"></path><path d="M45.77 402.97L45.77 402.97" stroke="rgba(31, 41, 55, 1)" stroke-width="1.5"></path><path d="M45.77 402.97L99.52 542.95" stroke="rgba(31, 41, 55, 1)" stroke-width="1.5"></path><path d="M45.77 402.97L224.38 408.31" stroke="rgba(31, 41, 55, 1)" stroke-width="1.5"></path><path d="M99.52 542.95L99.52 542.95" stroke="rgba(31, 41, 55, 1)" stroke-width="1.5"></path><path d="M99.52 542.95L38.99 661.54" stroke="rgba(31, 41, 55, 1)" stroke-width="1.5"></path><path d="M99.52 542.95L241.8 497.44" stroke="rgba(31, 41, 55, 1)" stroke-width="1.5"></path><path d="M38.99 661.54L38.99 661.54" stroke="rgba(31, 41, 55, 1)" stroke-width="1.5"></path><path d="M224.38 408.31L224.38 408.31" stroke="rgba(31, 41, 55, 1)" stroke-width="1.5"></path><path d="M224.38 408.31L241.8 497.44" stroke="rgba(31, 41, 55, 1)" stroke-width="1.5"></path><path d="M224.38 408.31L346.39 358.7" stroke="rgba(31, 41, 55, 1)" stroke-width="1.5"></path><path d="M241.8 497.44L241.8 497.44" stroke="rgba(31, 41, 55, 1)" stroke-width="1.5"></path><path d="M241.8 497.44L360.02 495.6" stroke="rgba(31, 41, 55, 1)" stroke-width="1.5"></path><path d="M241.8 497.44L244.84 654.85" stroke="rgba(31, 41, 55, 1)" stroke-width="1.5"></path><path d="M241.8 497.44L346.39 358.7" stroke="rgba(31, 41, 55, 1)" stroke-width="1.5"></path><path d="M244.84 654.85L244.84 654.85" stroke="rgba(31, 41, 55, 1)" stroke-width="1.5"></path><path d="M244.84 654.85L387.55 705.45" stroke="rgba(31, 41, 55, 1)" stroke-width="1.5"></path><path d="M244.84 654.85L99.52 542.95" stroke="rgba(31, 41, 55, 1)" stroke-width="1.5"></path><path d="M244.84 654.85L360.02 495.6" stroke="rgba(31, 41, 55, 1)" stroke-width="1.5"></path><path d="M346.39 358.7L346.39 358.7" stroke="rgba(31, 41, 55, 1)" stroke-width="1.5"></path><path d="M346.39 358.7L360.02 495.6" stroke="rgba(31, 41, 55, 1)" stroke-width="1.5"></path><path d="M346.39 358.7L525.76 359.37" stroke="rgba(31, 41, 55, 1)" stroke-width="1.5"></path><path d="M346.39 358.7L512.44 547.9" stroke="rgba(31, 41, 55, 1)" stroke-width="1.5"></path><path d="M346.39 358.7L45.77 402.97" stroke="rgba(31, 41, 55, 1)" stroke-width="1.5"></path><path d="M360.02 495.6L360.02 495.6" stroke="rgba(31, 41, 55, 1)" stroke-width="1.5"></path><path d="M360.02 495.6L512.44 547.9" stroke="rgba(31, 41, 55, 1)" stroke-width="1.5"></path><path d="M360.02 495.6L224.38 408.31" stroke="rgba(31, 41, 55, 1)" stroke-width="1.5"></path><path d="M360.02 495.6L387.55 705.45" stroke="rgba(31, 41, 55, 1)" stroke-width="1.5"></path><path d="M387.55 705.45L387.55 705.45" stroke="rgba(31, 41, 55, 1)" stroke-width="1.5"></path><path d="M387.55 705.45L512.44 547.9" stroke="rgba(31, 41, 55, 1)" stroke-width="1.5"></path><path d="M387.55 705.45L241.8 497.44" stroke="rgba(31, 41, 55, 1)" stroke-width="1.5"></path><path d="M387.55 705.45L686.02 662.09" stroke="rgba(31, 41, 55, 1)" stroke-width="1.5"></path><path d="M387.55 705.45L99.52 542.95" stroke="rgba(31, 41, 55, 1)" stroke-width="1.5"></path><path d="M525.76 359.37L525.76 359.37" stroke="rgba(31, 41, 55, 1)" stroke-width="1.5"></path><path d="M525.76 359.37L654.53 410.19" stroke="rgba(31, 41, 55, 1)" stroke-width="1.5"></path><path d="M525.76 359.37L512.44 547.9" stroke="rgba(31, 41, 55, 1)" stroke-width="1.5"></path><path d="M512.44 547.9L512.44 547.9" stroke="rgba(31, 41, 55, 1)" stroke-width="1.5"></path><path d="M512.44 547.9L654.53 410.19" stroke="rgba(31, 41, 55, 1)" stroke-width="1.5"></path><path d="M654.53 410.19L654.53 410.19" stroke="rgba(31, 41, 55, 1)" stroke-width="1.5"></path><path d="M654.53 410.19L813.02 501.08" stroke="rgba(31, 41, 55, 1)" stroke-width="1.5"></path><path d="M654.53 410.19L851.38 404.75" stroke="rgba(31, 41, 55, 1)" stroke-width="1.5"></path><path d="M686.02 662.09L686.02 662.09" stroke="rgba(31, 41, 55, 1)" stroke-width="1.5"></path><path d="M686.02 662.09L824.71 650.99" stroke="rgba(31, 41, 55, 1)" stroke-width="1.5"></path><path d="M686.02 662.09L813.02 501.08" stroke="rgba(31, 41, 55, 1)" stroke-width="1.5"></path><path d="M686.02 662.09L512.44 547.9" stroke="rgba(31, 41, 55, 1)" stroke-width="1.5"></path><path d="M686.02 662.09L654.53 410.19" stroke="rgba(31, 41, 55, 1)" stroke-width="1.5"></path><path d="M831.77 101.15L831.77 101.15" stroke="rgba(31, 41, 55, 1)" stroke-width="1.5"></path><path d="M831.77 101.15L811.86 219.69" stroke="rgba(31, 41, 55, 1)" stroke-width="1.5"></path><path d="M831.77 101.15L972.3 210.98" stroke="rgba(31, 41, 55, 1)" stroke-width="1.5"></path><path d="M831.77 101.15L1007.06 54.46" stroke="rgba(31, 41, 55, 1)" stroke-width="1.5"></path><path d="M831.77 101.15L991.39 -64.25" stroke="rgba(31, 41, 55, 1)" stroke-width="1.5"></path><path d="M831.77 101.15L1101.84 41.2" stroke="rgba(31, 41, 55, 1)" stroke-width="1.5"></path><path d="M831.77 101.15L851.38 404.75" stroke="rgba(31, 41, 55, 1)" stroke-width="1.5"></path><path d="M811.86 219.69L811.86 219.69" stroke="rgba(31, 41, 55, 1)" stroke-width="1.5"></path><path d="M811.86 219.69L972.3 210.98" stroke="rgba(31, 41, 55, 1)" stroke-width="1.5"></path><path d="M811.86 219.69L851.38 404.75" stroke="rgba(31, 41, 55, 1)" stroke-width="1.5"></path><path d="M811.86 219.69L946.55 402.64" stroke="rgba(31, 41, 55, 1)" stroke-width="1.5"></path><path d="M811.86 219.69L654.53 410.19" stroke="rgba(31, 41, 55, 1)" stroke-width="1.5"></path><path d="M811.86 219.69L1007.06 54.46" stroke="rgba(31, 41, 55, 1)" stroke-width="1.5"></path><path d="M851.38 404.75L851.38 404.75" stroke="rgba(31, 41, 55, 1)" stroke-width="1.5"></path><path d="M851.38 404.75L946.55 402.64" stroke="rgba(31, 41, 55, 1)" stroke-width="1.5"></path><path d="M851.38 404.75L813.02 501.08" stroke="rgba(31, 41, 55, 1)" stroke-width="1.5"></path><path d="M813.02 501.08L813.02 501.08" stroke="rgba(31, 41, 55, 1)" stroke-width="1.5"></path><path d="M813.02 501.08L824.71 650.99" stroke="rgba(31, 41, 55, 1)" stroke-width="1.5"></path><path d="M813.02 501.08L946.55 402.64" stroke="rgba(31, 41, 55, 1)" stroke-width="1.5"></path><path d="M813.02 501.08L978.96 530.69" stroke="rgba(31, 41, 55, 1)" stroke-width="1.5"></path><path d="M824.71 650.99L824.71 650.99" stroke="rgba(31, 41, 55, 1)" stroke-width="1.5"></path><path d="M824.71 650.99L1000.22 653.65" stroke="rgba(31, 41, 55, 1)" stroke-width="1.5"></path><path d="M824.71 650.99L978.96 530.69" stroke="rgba(31, 41, 55, 1)" stroke-width="1.5"></path><path d="M991.39 -64.25L991.39 -64.25" stroke="rgba(31, 41, 55, 1)" stroke-width="1.5"></path><path d="M991.39 -64.25L1007.06 54.46" stroke="rgba(31, 41, 55, 1)" stroke-width="1.5"></path><path d="M991.39 -64.25L1101.84 41.2" stroke="rgba(31, 41, 55, 1)" stroke-width="1.5"></path><path d="M1007.06 54.46L1007.06 54.46" stroke="rgba(31, 41, 55, 1)" stroke-width="1.5"></path><path d="M1007.06 54.46L1101.84 41.2" stroke="rgba(31, 41, 55, 1)" stroke-width="1.5"></path><path d="M1007.06 54.46L972.3 210.98" stroke="rgba(31, 41, 55, 1)" stroke-width="1.5"></path><path d="M1007.06 54.46L1153.02 237.55" stroke="rgba(31, 41, 55, 1)" stroke-width="1.5"></path><path d="M972.3 210.98L972.3 210.98" stroke="rgba(31, 41, 55, 1)" stroke-width="1.5"></path><path d="M972.3 210.98L1153.02 237.55" stroke="rgba(31, 41, 55, 1)" stroke-width="1.5"></path><path d="M972.3 210.98L946.55 402.64" stroke="rgba(31, 41, 55, 1)" stroke-width="1.5"></path><path d="M946.55 402.64L946.55 402.64" stroke="rgba(31, 41, 55, 1)" stroke-width="1.5"></path><path d="M946.55 402.64L978.96 530.69" stroke="rgba(31, 41, 55, 1)" stroke-width="1.5"></path><path d="M978.96 530.69L978.96 530.69" stroke="rgba(31, 41, 55, 1)" stroke-width="1.5"></path><path d="M978.96 530.69L1000.22 653.65" stroke="rgba(31, 41, 55, 1)" stroke-width="1.5"></path><path d="M978.96 530.69L1139.44 493.02" stroke="rgba(31, 41, 55, 1)" stroke-width="1.5"></path><path d="M978.96 530.69L851.38 404.75" stroke="rgba(31, 41, 55, 1)" stroke-width="1.5"></path><path d="M1000.22 653.65L1000.22 653.65" stroke="rgba(31, 41, 55, 1)" stroke-width="1.5"></path><path d="M1000.22 653.65L1122.65 690.91" stroke="rgba(31, 41, 55, 1)" stroke-width="1.5"></path><path d="M1000.22 653.65L1139.44 493.02" stroke="rgba(31, 41, 55, 1)" stroke-width="1.5"></path><path d="M1000.22 653.65L813.02 501.08" stroke="rgba(31, 41, 55, 1)" stroke-width="1.5"></path><path d="M1101.84 41.2L1101.84 41.2" stroke="rgba(31, 41, 55, 1)" stroke-width="1.5"></path><path d="M1101.84 41.2L1261.52 109.85" stroke="rgba(31, 41, 55, 1)" stroke-width="1.5"></path><path d="M1101.84 41.2L1287.48 -38.47" stroke="rgba(31, 41, 55, 1)" stroke-width="1.5"></path><path d="M1153.02 237.55L1153.02 237.55" stroke="rgba(31, 41, 55, 1)" stroke-width="1.5"></path><path d="M1153.02 237.55L1273.07 247" stroke="rgba(31, 41, 55, 1)" stroke-width="1.5"></path><path d="M1153.02 237.55L1146.55 383.7" stroke="rgba(31, 41, 55, 1)" stroke-width="1.5"></path><path d="M1153.02 237.55L1261.52 109.85" stroke="rgba(31, 41, 55, 1)" stroke-width="1.5"></path><path d="M1153.02 237.55L1269.73 400.79" stroke="rgba(31, 41, 55, 1)" stroke-width="1.5"></path><path d="M1153.02 237.55L1101.84 41.2" stroke="rgba(31, 41, 55, 1)" stroke-width="1.5"></path><path d="M1146.55 383.7L1146.55 383.7" stroke="rgba(31, 41, 55, 1)" stroke-width="1.5"></path><path d="M1146.55 383.7L1139.44 493.02" stroke="rgba(31, 41, 55, 1)" stroke-width="1.5"></path><path d="M1146.55 383.7L1269.73 400.79" stroke="rgba(31, 41, 55, 1)" stroke-width="1.5"></path><path d="M1146.55 383.7L1273.07 247" stroke="rgba(31, 41, 55, 1)" stroke-width="1.5"></path><path d="M1146.55 383.7L946.55 402.64" stroke="rgba(31, 41, 55, 1)" stroke-width="1.5"></path><path d="M1146.55 383.7L1300.18 532.52" stroke="rgba(31, 41, 55, 1)" stroke-width="1.5"></path><path d="M1139.44 493.02L1139.44 493.02" stroke="rgba(31, 41, 55, 1)" stroke-width="1.5"></path><path d="M1139.44 493.02L1269.73 400.79" stroke="rgba(31, 41, 55, 1)" stroke-width="1.5"></path><path d="M1122.65 690.91L1122.65 690.91" stroke="rgba(31, 41, 55, 1)" stroke-width="1.5"></path><path d="M1122.65 690.91L1259.58 657" stroke="rgba(31, 41, 55, 1)" stroke-width="1.5"></path><path d="M1122.65 690.91L1139.44 493.02" stroke="rgba(31, 41, 55, 1)" stroke-width="1.5"></path><path d="M1287.48 -38.47L1287.48 -38.47" stroke="rgba(31, 41, 55, 1)" stroke-width="1.5"></path><path d="M1287.48 -38.47L1261.52 109.85" stroke="rgba(31, 41, 55, 1)" stroke-width="1.5"></path><path d="M1287.48 -38.47L1426.93 105.92" stroke="rgba(31, 41, 55, 1)" stroke-width="1.5"></path><path d="M1287.48 -38.47L1544.39 -47.07" stroke="rgba(31, 41, 55, 1)" stroke-width="1.5"></path><path d="M1287.48 -38.47L1273.07 247" stroke="rgba(31, 41, 55, 1)" stroke-width="1.5"></path><path d="M1261.52 109.85L1261.52 109.85" stroke="rgba(31, 41, 55, 1)" stroke-width="1.5"></path><path d="M1261.52 109.85L1273.07 247" stroke="rgba(31, 41, 55, 1)" stroke-width="1.5"></path><path d="M1261.52 109.85L1426.93 105.92" stroke="rgba(31, 41, 55, 1)" stroke-width="1.5"></path><path d="M1273.07 247L1273.07 247" stroke="rgba(31, 41, 55, 1)" stroke-width="1.5"></path><path d="M1269.73 400.79L1269.73 400.79" stroke="rgba(31, 41, 55, 1)" stroke-width="1.5"></path><path d="M1269.73 400.79L1300.18 532.52" stroke="rgba(31, 41, 55, 1)" stroke-width="1.5"></path><path d="M1269.73 400.79L1273.07 247" stroke="rgba(31, 41, 55, 1)" stroke-width="1.5"></path><path d="M1269.73 400.79L1418.83 342.78" stroke="rgba(31, 41, 55, 1)" stroke-width="1.5"></path><path d="M1300.18 532.52L1300.18 532.52" stroke="rgba(31, 41, 55, 1)" stroke-width="1.5"></path><path d="M1300.18 532.52L1410.88 541.28" stroke="rgba(31, 41, 55, 1)" stroke-width="1.5"></path><path d="M1300.18 532.52L1259.58 657" stroke="rgba(31, 41, 55, 1)" stroke-width="1.5"></path><path d="M1259.58 657L1259.58 657" stroke="rgba(31, 41, 55, 1)" stroke-width="1.5"></path><path d="M1259.58 657L1395.83 712.45" stroke="rgba(31, 41, 55, 1)" stroke-width="1.5"></path><path d="M1426.93 105.92L1426.93 105.92" stroke="rgba(31, 41, 55, 1)" stroke-width="1.5"></path><path d="M1426.93 105.92L1426.87 220.18" stroke="rgba(31, 41, 55, 1)" stroke-width="1.5"></path><path d="M1426.93 105.92L1557.72 85.54" stroke="rgba(31, 41, 55, 1)" stroke-width="1.5"></path><path d="M1426.87 220.18L1426.87 220.18" stroke="rgba(31, 41, 55, 1)" stroke-width="1.5"></path><path d="M1426.87 220.18L1418.83 342.78" stroke="rgba(31, 41, 55, 1)" stroke-width="1.5"></path><path d="M1426.87 220.18L1273.07 247" stroke="rgba(31, 41, 55, 1)" stroke-width="1.5"></path><path d="M1418.83 342.78L1418.83 342.78" stroke="rgba(31, 41, 55, 1)" stroke-width="1.5"></path><path d="M1418.83 342.78L1273.07 247" stroke="rgba(31, 41, 55, 1)" stroke-width="1.5"></path><path d="M1410.88 541.28L1410.88 541.28" stroke="rgba(31, 41, 55, 1)" stroke-width="1.5"></path><path d="M1410.88 541.28L1539.01 513.61" stroke="rgba(31, 41, 55, 1)" stroke-width="1.5"></path><path d="M1395.83 712.45L1395.83 712.45" stroke="rgba(31, 41, 55, 1)" stroke-width="1.5"></path><path d="M1395.83 712.45L1541.08 671.29" stroke="rgba(31, 41, 55, 1)" stroke-width="1.5"></path><path d="M1395.83 712.45L1410.88 541.28" stroke="rgba(31, 41, 55, 1)" stroke-width="1.5"></path><path d="M1544.39 -47.07L1544.39 -47.07" stroke="rgba(31, 41, 55, 1)" stroke-width="1.5"></path><path d="M1544.39 -47.07L1557.72 85.54" stroke="rgba(31, 41, 55, 1)" stroke-width="1.5"></path><path d="M1544.39 -47.07L1426.93 105.92" stroke="rgba(31, 41, 55, 1)" stroke-width="1.5"></path><path d="M1544.39 -47.07L1600.27 191.54" stroke="rgba(31, 41, 55, 1)" stroke-width="1.5"></path><path d="M1557.72 85.54L1557.72 85.54" stroke="rgba(31, 41, 55, 1)" stroke-width="1.5"></path><path d="M1557.72 85.54L1600.27 191.54" stroke="rgba(31, 41, 55, 1)" stroke-width="1.5"></path><path d="M1557.72 85.54L1426.87 220.18" stroke="rgba(31, 41, 55, 1)" stroke-width="1.5"></path><path d="M1600.27 191.54L1600.27 191.54" stroke="rgba(31, 41, 55, 1)" stroke-width="1.5"></path><path d="M1600.27 191.54L1599.9 362.41" stroke="rgba(31, 41, 55, 1)" stroke-width="1.5"></path><path d="M1600.27 191.54L1426.87 220.18" stroke="rgba(31, 41, 55, 1)" stroke-width="1.5"></path><path d="M1600.27 191.54L1426.93 105.92" stroke="rgba(31, 41, 55, 1)" stroke-width="1.5"></path><path d="M1599.9 362.41L1599.9 362.41" stroke="rgba(31, 41, 55, 1)" stroke-width="1.5"></path><path d="M1599.9 362.41L1539.01 513.61" stroke="rgba(31, 41, 55, 1)" stroke-width="1.5"></path><path d="M1539.01 513.61L1539.01 513.61" stroke="rgba(31, 41, 55, 1)" stroke-width="1.5"></path><path d="M1539.01 513.61L1541.08 671.29" stroke="rgba(31, 41, 55, 1)" stroke-width="1.5"></path><path d="M1539.01 513.61L1418.83 342.78" stroke="rgba(31, 41, 55, 1)" stroke-width="1.5"></path><path d="M1539.01 513.61L1300.18 532.52" stroke="rgba(31, 41, 55, 1)" stroke-width="1.5"></path><path d="M1539.01 513.61L1395.83 712.45" stroke="rgba(31, 41, 55, 1)" stroke-width="1.5"></path><path d="M1541.08 671.29L1541.08 671.29" stroke="rgba(31, 41, 55, 1)" stroke-width="1.5"></path><circle r="5" cx="-75.05" cy="357.12" fill="rgba(31, 41, 55, 1)"></circle><circle r="5" cx="-103.97" cy="545.32" fill="rgba(31, 41, 55, 1)"></circle><circle r="5" cx="-79.13" cy="709.36" fill="rgba(31, 41, 55, 1)"></circle><circle r="5" cx="45.77" cy="402.97" fill="rgba(31, 41, 55, 1)"></circle><circle r="5" cx="99.52" cy="542.95" fill="rgba(31, 41, 55, 1)"></circle><circle r="5" cx="38.99" cy="661.54" fill="rgba(31, 41, 55, 1)"></circle><circle r="5" cx="224.38" cy="408.31" fill="rgba(31, 41, 55, 1)"></circle><circle r="5" cx="241.8" cy="497.44" fill="rgba(31, 41, 55, 1)"></circle><circle r="5" cx="244.84" cy="654.85" fill="rgba(31, 41, 55, 1)"></circle><circle r="5" cx="346.39" cy="358.7" fill="rgba(31, 41, 55, 1)"></circle><circle r="5" cx="360.02" cy="495.6" fill="rgba(31, 41, 55, 1)"></circle><circle r="5" cx="387.55" cy="705.45" fill="rgba(31, 41, 55, 1)"></circle><circle r="5" cx="525.76" cy="359.37" fill="rgba(31, 41, 55, 1)"></circle><circle r="5" cx="512.44" cy="547.9" fill="rgba(31, 41, 55, 1)"></circle><circle r="5" cx="654.53" cy="410.19" fill="rgba(31, 41, 55, 1)"></circle><circle r="5" cx="686.02" cy="662.09" fill="rgba(31, 41, 55, 1)"></circle><circle r="5" cx="831.77" cy="101.15" fill="rgba(31, 41, 55, 1)"></circle><circle r="5" cx="811.86" cy="219.69" fill="rgba(31, 41, 55, 1)"></circle><circle r="5" cx="851.38" cy="404.75" fill="rgba(31, 41, 55, 1)"></circle><circle r="5" cx="813.02" cy="501.08" fill="rgba(31, 41, 55, 1)"></circle><circle r="5" cx="824.71" cy="650.99" fill="rgba(31, 41, 55, 1)"></circle><circle r="5" cx="991.39" cy="-64.25" fill="rgba(31, 41, 55, 1)"></circle><circle r="5" cx="1007.06" cy="54.46" fill="rgba(31, 41, 55, 1)"></circle><circle r="5" cx="972.3" cy="210.98" fill="rgba(31, 41, 55, 1)"></circle><circle r="5" cx="946.55" cy="402.64" fill="rgba(31, 41, 55, 1)"></circle><circle r="5" cx="978.96" cy="530.69" fill="rgba(31, 41, 55, 1)"></circle><circle r="5" cx="1000.22" cy="653.65" fill="rgba(31, 41, 55, 1)"></circle><circle r="5" cx="1101.84" cy="41.2" fill="rgba(31, 41, 55, 1)"></circle><circle r="5" cx="1153.02" cy="237.55" fill="rgba(31, 41, 55, 1)"></circle><circle r="5" cx="1146.55" cy="383.7" fill="rgba(31, 41, 55, 1)"></circle><circle r="5" cx="1139.44" cy="493.02" fill="rgba(31, 41, 55, 1)"></circle><circle r="5" cx="1122.65" cy="690.91" fill="rgba(31, 41, 55, 1)"></circle><circle r="5" cx="1287.48" cy="-38.47" fill="rgba(31, 41, 55, 1)"></circle><circle r="5" cx="1261.52" cy="109.85" fill="rgba(31, 41, 55, 1)"></circle><circle r="5" cx="1273.07" cy="247" fill="rgba(31, 41, 55, 1)"></circle><circle r="5" cx="1269.73" cy="400.79" fill="rgba(31, 41, 55, 1)"></circle><circle r="5" cx="1300.18" cy="532.52" fill="rgba(31, 41, 55, 1)"></circle><circle r="5" cx="1259.58" cy="657" fill="rgba(31, 41, 55, 1)"></circle><circle r="5" cx="1426.93" cy="105.92" fill="rgba(31, 41, 55, 1)"></circle><circle r="5" cx="1426.87" cy="220.18" fill="rgba(31, 41, 55, 1)"></circle><circle r="5" cx="1418.83" cy="342.78" fill="rgba(31, 41, 55, 1)"></circle><circle r="5" cx="1410.88" cy="541.28" fill="rgba(31, 41, 55, 1)"></circle><circle r="5" cx="1395.83" cy="712.45" fill="rgba(31, 41, 55, 1)"></circle><circle r="5" cx="1544.39" cy="-47.07" fill="rgba(31, 41, 55, 1)"></circle><circle r="5" cx="1557.72" cy="85.54" fill="rgba(31, 41, 55, 1)"></circle><circle r="5" cx="1600.27" cy="191.54" fill="rgba(31, 41, 55, 1)"></circle><circle r="5" cx="1599.9" cy="362.41" fill="rgba(31, 41, 55, 1)"></circle><circle r="5" cx="1539.01" cy="513.61" fill="rgba(31, 41, 55, 1)"></circle><circle r="5" cx="1541.08" cy="671.29" fill="rgba(31, 41, 55, 1)"></circle><path d="M392.68 658.66L392.68 658.66" stroke="hsl(215, 27.9%, 21.9%)" stroke-width="1.5"></path><path d="M392.68 658.66L251.23 659.25" stroke="hsl(215, 27.9%, 21.9%)" stroke-width="1.5"></path><path d="M392.68 658.66L382.71 507.09" stroke="hsl(215, 27.9%, 21.9%)" stroke-width="1.5"></path><path d="M803.6 522.55L803.6 522.55" stroke="hsl(215, 27.9%, 21.9%)" stroke-width="1.5"></path><path d="M803.6 522.55L701.86 493.37" stroke="hsl(215, 27.9%, 21.9%)" stroke-width="1.5"></path><path d="M803.6 522.55L805.66 640.11" stroke="hsl(215, 27.9%, 21.9%)" stroke-width="1.5"></path><path d="M1104.54 384.4L1104.54 384.4" stroke="hsl(215, 27.9%, 21.9%)" stroke-width="1.5"></path><path d="M1104.54 384.4L1001.91 380.84" stroke="hsl(215, 27.9%, 21.9%)" stroke-width="1.5"></path><path d="M1104.54 384.4L1136.85 236.22" stroke="hsl(215, 27.9%, 21.9%)" stroke-width="1.5"></path><path d="M1104.54 384.4L1132.82 539.63" stroke="hsl(215, 27.9%, 21.9%)" stroke-width="1.5"></path><path d="M1104.54 384.4L1282.94 408.87" stroke="hsl(215, 27.9%, 21.9%)" stroke-width="1.5"></path><path d="M1132.82 539.63L1132.82 539.63" stroke="hsl(215, 27.9%, 21.9%)" stroke-width="1.5"></path><path d="M1132.82 539.63L1144.35 659.93" stroke="hsl(215, 27.9%, 21.9%)" stroke-width="1.5"></path><path d="M1132.82 539.63L1303.36 556.9" stroke="hsl(215, 27.9%, 21.9%)" stroke-width="1.5"></path><path d="M1132.82 539.63L946.95 554.29" stroke="hsl(215, 27.9%, 21.9%)" stroke-width="1.5"></path><path d="M1132.82 539.63L978.38 656.12" stroke="hsl(215, 27.9%, 21.9%)" stroke-width="1.5"></path><path d="M1287.39 -92.06L1287.39 -92.06" stroke="hsl(215, 27.9%, 21.9%)" stroke-width="1.5"></path><path d="M1287.39 -92.06L1396.36 41.83" stroke="hsl(215, 27.9%, 21.9%)" stroke-width="1.5"></path><path d="M1287.39 -92.06L1307.26 96.07" stroke="hsl(215, 27.9%, 21.9%)" stroke-width="1.5"></path><path d="M1287.39 -92.06L1156.23 92.56" stroke="hsl(215, 27.9%, 21.9%)" stroke-width="1.5"></path><path d="M1287.39 -92.06L1548.62 -53.87" stroke="hsl(215, 27.9%, 21.9%)" stroke-width="1.5"></path><path d="M1282.94 408.87L1282.94 408.87" stroke="hsl(215, 27.9%, 21.9%)" stroke-width="1.5"></path><path d="M1282.94 408.87L1303.36 556.9" stroke="hsl(215, 27.9%, 21.9%)" stroke-width="1.5"></path><path d="M1282.94 408.87L1441.82 359.22" stroke="hsl(215, 27.9%, 21.9%)" stroke-width="1.5"></path><path d="M1282.94 408.87L1396.31 535.35" stroke="hsl(215, 27.9%, 21.9%)" stroke-width="1.5"></path><path d="M1282.94 408.87L1252.82 212.27" stroke="hsl(215, 27.9%, 21.9%)" stroke-width="1.5"></path><path d="M1282.94 408.87L1132.82 539.63" stroke="hsl(215, 27.9%, 21.9%)" stroke-width="1.5"></path><path d="M1442.34 669.13L1442.34 669.13" stroke="hsl(215, 27.9%, 21.9%)" stroke-width="1.5"></path><path d="M1442.34 669.13L1552.75 658.33" stroke="hsl(215, 27.9%, 21.9%)" stroke-width="1.5"></path><path d="M1442.34 669.13L1308.29 662.2" stroke="hsl(215, 27.9%, 21.9%)" stroke-width="1.5"></path><path d="M-38.78 541.05L-38.78 541.05" stroke="hsl(215, 27.9%, 21.9%)" stroke-width="1.5"></path><path d="M-38.78 541.05L-60.69 653.27" stroke="hsl(215, 27.9%, 21.9%)" stroke-width="1.5"></path><path d="M-38.78 541.05L110.35 504.23" stroke="hsl(215, 27.9%, 21.9%)" stroke-width="1.5"></path><path d="M-60.69 653.27L-60.69 653.27" stroke="hsl(215, 27.9%, 21.9%)" stroke-width="1.5"></path><path d="M-60.69 653.27L110.35 504.23" stroke="hsl(215, 27.9%, 21.9%)" stroke-width="1.5"></path><path d="M110.35 504.23L110.35 504.23" stroke="hsl(215, 27.9%, 21.9%)" stroke-width="1.5"></path><path d="M110.35 504.23L215.82 538.88" stroke="hsl(215, 27.9%, 21.9%)" stroke-width="1.5"></path><path d="M110.35 504.23L251.23 659.25" stroke="hsl(215, 27.9%, 21.9%)" stroke-width="1.5"></path><path d="M215.82 538.88L215.82 538.88" stroke="hsl(215, 27.9%, 21.9%)" stroke-width="1.5"></path><path d="M215.82 538.88L251.23 659.25" stroke="hsl(215, 27.9%, 21.9%)" stroke-width="1.5"></path><path d="M215.82 538.88L382.71 507.09" stroke="hsl(215, 27.9%, 21.9%)" stroke-width="1.5"></path><path d="M215.82 538.88L392.68 658.66" stroke="hsl(215, 27.9%, 21.9%)" stroke-width="1.5"></path><path d="M215.82 538.88L-38.78 541.05" stroke="hsl(215, 27.9%, 21.9%)" stroke-width="1.5"></path><path d="M251.23 659.25L251.23 659.25" stroke="hsl(215, 27.9%, 21.9%)" stroke-width="1.5"></path><path d="M251.23 659.25L382.71 507.09" stroke="hsl(215, 27.9%, 21.9%)" stroke-width="1.5"></path><path d="M251.23 659.25L520.04 517.51" stroke="hsl(215, 27.9%, 21.9%)" stroke-width="1.5"></path><path d="M251.23 659.25L-60.69 653.27" stroke="hsl(215, 27.9%, 21.9%)" stroke-width="1.5"></path><path d="M382.71 507.09L382.71 507.09" stroke="hsl(215, 27.9%, 21.9%)" stroke-width="1.5"></path><path d="M382.71 507.09L520.04 517.51" stroke="hsl(215, 27.9%, 21.9%)" stroke-width="1.5"></path><path d="M382.71 507.09L110.35 504.23" stroke="hsl(215, 27.9%, 21.9%)" stroke-width="1.5"></path><path d="M382.71 507.09L701.86 493.37" stroke="hsl(215, 27.9%, 21.9%)" stroke-width="1.5"></path><path d="M520.04 517.51L520.04 517.51" stroke="hsl(215, 27.9%, 21.9%)" stroke-width="1.5"></path><path d="M520.04 517.51L701.86 493.37" stroke="hsl(215, 27.9%, 21.9%)" stroke-width="1.5"></path><path d="M520.04 517.51L392.68 658.66" stroke="hsl(215, 27.9%, 21.9%)" stroke-width="1.5"></path><path d="M520.04 517.51L803.6 522.55" stroke="hsl(215, 27.9%, 21.9%)" stroke-width="1.5"></path><path d="M701.86 493.37L701.86 493.37" stroke="hsl(215, 27.9%, 21.9%)" stroke-width="1.5"></path><path d="M701.86 493.37L805.66 640.11" stroke="hsl(215, 27.9%, 21.9%)" stroke-width="1.5"></path><path d="M850.79 372.35L850.79 372.35" stroke="hsl(215, 27.9%, 21.9%)" stroke-width="1.5"></path><path d="M850.79 372.35L1001.91 380.84" stroke="hsl(215, 27.9%, 21.9%)" stroke-width="1.5"></path><path d="M850.79 372.35L803.6 522.55" stroke="hsl(215, 27.9%, 21.9%)" stroke-width="1.5"></path><path d="M850.79 372.35L701.86 493.37" stroke="hsl(215, 27.9%, 21.9%)" stroke-width="1.5"></path><path d="M805.66 640.11L805.66 640.11" stroke="hsl(215, 27.9%, 21.9%)" stroke-width="1.5"></path><path d="M805.66 640.11L946.95 554.29" stroke="hsl(215, 27.9%, 21.9%)" stroke-width="1.5"></path><path d="M805.66 640.11L978.38 656.12" stroke="hsl(215, 27.9%, 21.9%)" stroke-width="1.5"></path><path d="M1001.91 380.84L1001.91 380.84" stroke="hsl(215, 27.9%, 21.9%)" stroke-width="1.5"></path><path d="M1001.91 380.84L946.95 554.29" stroke="hsl(215, 27.9%, 21.9%)" stroke-width="1.5"></path><path d="M1001.91 380.84L1136.85 236.22" stroke="hsl(215, 27.9%, 21.9%)" stroke-width="1.5"></path><path d="M1001.91 380.84L1132.82 539.63" stroke="hsl(215, 27.9%, 21.9%)" stroke-width="1.5"></path><path d="M1001.91 380.84L803.6 522.55" stroke="hsl(215, 27.9%, 21.9%)" stroke-width="1.5"></path><path d="M946.95 554.29L946.95 554.29" stroke="hsl(215, 27.9%, 21.9%)" stroke-width="1.5"></path><path d="M946.95 554.29L978.38 656.12" stroke="hsl(215, 27.9%, 21.9%)" stroke-width="1.5"></path><path d="M946.95 554.29L803.6 522.55" stroke="hsl(215, 27.9%, 21.9%)" stroke-width="1.5"></path><path d="M978.38 656.12L978.38 656.12" stroke="hsl(215, 27.9%, 21.9%)" stroke-width="1.5"></path><path d="M978.38 656.12L1144.35 659.93" stroke="hsl(215, 27.9%, 21.9%)" stroke-width="1.5"></path><path d="M978.38 656.12L803.6 522.55" stroke="hsl(215, 27.9%, 21.9%)" stroke-width="1.5"></path><path d="M1156.23 92.56L1156.23 92.56" stroke="hsl(215, 27.9%, 21.9%)" stroke-width="1.5"></path><path d="M1156.23 92.56L1136.85 236.22" stroke="hsl(215, 27.9%, 21.9%)" stroke-width="1.5"></path><path d="M1156.23 92.56L1307.26 96.07" stroke="hsl(215, 27.9%, 21.9%)" stroke-width="1.5"></path><path d="M1156.23 92.56L1252.82 212.27" stroke="hsl(215, 27.9%, 21.9%)" stroke-width="1.5"></path><path d="M1136.85 236.22L1136.85 236.22" stroke="hsl(215, 27.9%, 21.9%)" stroke-width="1.5"></path><path d="M1136.85 236.22L1252.82 212.27" stroke="hsl(215, 27.9%, 21.9%)" stroke-width="1.5"></path><path d="M1144.35 659.93L1144.35 659.93" stroke="hsl(215, 27.9%, 21.9%)" stroke-width="1.5"></path><path d="M1144.35 659.93L1308.29 662.2" stroke="hsl(215, 27.9%, 21.9%)" stroke-width="1.5"></path><path d="M1144.35 659.93L1303.36 556.9" stroke="hsl(215, 27.9%, 21.9%)" stroke-width="1.5"></path><path d="M1307.26 96.07L1307.26 96.07" stroke="hsl(215, 27.9%, 21.9%)" stroke-width="1.5"></path><path d="M1307.26 96.07L1396.36 41.83" stroke="hsl(215, 27.9%, 21.9%)" stroke-width="1.5"></path><path d="M1307.26 96.07L1252.82 212.27" stroke="hsl(215, 27.9%, 21.9%)" stroke-width="1.5"></path><path d="M1307.26 96.07L1389.62 223.24" stroke="hsl(215, 27.9%, 21.9%)" stroke-width="1.5"></path><path d="M1252.82 212.27L1252.82 212.27" stroke="hsl(215, 27.9%, 21.9%)" stroke-width="1.5"></path><path d="M1252.82 212.27L1389.62 223.24" stroke="hsl(215, 27.9%, 21.9%)" stroke-width="1.5"></path><path d="M1303.36 556.9L1303.36 556.9" stroke="hsl(215, 27.9%, 21.9%)" stroke-width="1.5"></path><path d="M1303.36 556.9L1396.31 535.35" stroke="hsl(215, 27.9%, 21.9%)" stroke-width="1.5"></path><path d="M1303.36 556.9L1308.29 662.2" stroke="hsl(215, 27.9%, 21.9%)" stroke-width="1.5"></path><path d="M1303.36 556.9L1442.34 669.13" stroke="hsl(215, 27.9%, 21.9%)" stroke-width="1.5"></path><path d="M1308.29 662.2L1308.29 662.2" stroke="hsl(215, 27.9%, 21.9%)" stroke-width="1.5"></path><path d="M1396.36 41.83L1396.36 41.83" stroke="hsl(215, 27.9%, 21.9%)" stroke-width="1.5"></path><path d="M1396.36 41.83L1548.62 -53.87" stroke="hsl(215, 27.9%, 21.9%)" stroke-width="1.5"></path><path d="M1396.36 41.83L1389.62 223.24" stroke="hsl(215, 27.9%, 21.9%)" stroke-width="1.5"></path><path d="M1396.36 41.83L1586.96 71.42" stroke="hsl(215, 27.9%, 21.9%)" stroke-width="1.5"></path><path d="M1396.36 41.83L1252.82 212.27" stroke="hsl(215, 27.9%, 21.9%)" stroke-width="1.5"></path><path d="M1389.62 223.24L1389.62 223.24" stroke="hsl(215, 27.9%, 21.9%)" stroke-width="1.5"></path><path d="M1389.62 223.24L1441.82 359.22" stroke="hsl(215, 27.9%, 21.9%)" stroke-width="1.5"></path><path d="M1441.82 359.22L1441.82 359.22" stroke="hsl(215, 27.9%, 21.9%)" stroke-width="1.5"></path><path d="M1441.82 359.22L1584.97 373.72" stroke="hsl(215, 27.9%, 21.9%)" stroke-width="1.5"></path><path d="M1396.31 535.35L1396.31 535.35" stroke="hsl(215, 27.9%, 21.9%)" stroke-width="1.5"></path><path d="M1396.31 535.35L1537.72 532.42" stroke="hsl(215, 27.9%, 21.9%)" stroke-width="1.5"></path><path d="M1548.62 -53.87L1548.62 -53.87" stroke="hsl(215, 27.9%, 21.9%)" stroke-width="1.5"></path><path d="M1548.62 -53.87L1586.96 71.42" stroke="hsl(215, 27.9%, 21.9%)" stroke-width="1.5"></path><path d="M1548.62 -53.87L1563.75 199.03" stroke="hsl(215, 27.9%, 21.9%)" stroke-width="1.5"></path><path d="M1548.62 -53.87L1307.26 96.07" stroke="hsl(215, 27.9%, 21.9%)" stroke-width="1.5"></path><path d="M1586.96 71.42L1586.96 71.42" stroke="hsl(215, 27.9%, 21.9%)" stroke-width="1.5"></path><path d="M1586.96 71.42L1563.75 199.03" stroke="hsl(215, 27.9%, 21.9%)" stroke-width="1.5"></path><path d="M1586.96 71.42L1389.62 223.24" stroke="hsl(215, 27.9%, 21.9%)" stroke-width="1.5"></path><path d="M1563.75 199.03L1563.75 199.03" stroke="hsl(215, 27.9%, 21.9%)" stroke-width="1.5"></path><path d="M1563.75 199.03L1389.62 223.24" stroke="hsl(215, 27.9%, 21.9%)" stroke-width="1.5"></path><path d="M1563.75 199.03L1584.97 373.72" stroke="hsl(215, 27.9%, 21.9%)" stroke-width="1.5"></path><path d="M1563.75 199.03L1441.82 359.22" stroke="hsl(215, 27.9%, 21.9%)" stroke-width="1.5"></path><path d="M1563.75 199.03L1396.36 41.83" stroke="hsl(215, 27.9%, 21.9%)" stroke-width="1.5"></path><path d="M1584.97 373.72L1584.97 373.72" stroke="hsl(215, 27.9%, 21.9%)" stroke-width="1.5"></path><path d="M1584.97 373.72L1537.72 532.42" stroke="hsl(215, 27.9%, 21.9%)" stroke-width="1.5"></path><path d="M1537.72 532.42L1537.72 532.42" stroke="hsl(215, 27.9%, 21.9%)" stroke-width="1.5"></path><path d="M1537.72 532.42L1552.75 658.33" stroke="hsl(215, 27.9%, 21.9%)" stroke-width="1.5"></path><path d="M1537.72 532.42L1442.34 669.13" stroke="hsl(215, 27.9%, 21.9%)" stroke-width="1.5"></path><path d="M1537.72 532.42L1441.82 359.22" stroke="hsl(215, 27.9%, 21.9%)" stroke-width="1.5"></path><path d="M1552.75 658.33L1552.75 658.33" stroke="hsl(215, 27.9%, 21.9%)" stroke-width="1.5"></path><path d="M1552.75 658.33L1396.31 535.35" stroke="hsl(215, 27.9%, 21.9%)" stroke-width="1.5"></path><path d="M1552.75 658.33L1308.29 662.2" stroke="hsl(215, 27.9%, 21.9%)" stroke-width="1.5"></path><circle r="25" cx="392.68" cy="658.66" fill="url(&quot;#SvgjsRadialGradient1007&quot;)"></circle><circle r="25" cx="803.6" cy="522.55" fill="url(&quot;#SvgjsRadialGradient1007&quot;)"></circle><circle r="25" cx="1104.54" cy="384.4" fill="url(&quot;#SvgjsRadialGradient1007&quot;)"></circle><circle r="25" cx="1132.82" cy="539.63" fill="url(&quot;#SvgjsRadialGradient1007&quot;)"></circle><circle r="25" cx="1287.39" cy="-92.06" fill="url(&quot;#SvgjsRadialGradient1007&quot;)"></circle><circle r="25" cx="1282.94" cy="408.87" fill="url(&quot;#SvgjsRadialGradient1007&quot;)"></circle><circle r="25" cx="1442.34" cy="669.13" fill="url(&quot;#SvgjsRadialGradient1007&quot;)"></circle><circle r="5" cx="-38.78" cy="541.05" fill="#8f949b"></circle><circle r="5" cx="-60.69" cy="653.27" fill="#8f949b"></circle><circle r="5" cx="110.35" cy="504.23" fill="#8f949b"></circle><circle r="5" cx="215.82" cy="538.88" fill="#8f949b"></circle><circle r="5" cx="251.23" cy="659.25" fill="#8f949b"></circle><circle r="5" cx="382.71" cy="507.09" fill="#8f949b"></circle><circle r="5" cx="520.04" cy="517.51" fill="#8f949b"></circle><circle r="5" cx="701.86" cy="493.37" fill="#8f949b"></circle><circle r="5" cx="850.79" cy="372.35" fill="#8f949b"></circle><circle r="5" cx="805.66" cy="640.11" fill="#8f949b"></circle><circle r="5" cx="1001.91" cy="380.84" fill="#8f949b"></circle><circle r="5" cx="946.95" cy="554.29" fill="#8f949b"></circle><circle r="5" cx="978.38" cy="656.12" fill="#8f949b"></circle><circle r="5" cx="1156.23" cy="92.56" fill="#8f949b"></circle><circle r="5" cx="1136.85" cy="236.22" fill="#8f949b"></circle><circle r="5" cx="1144.35" cy="659.93" fill="#8f949b"></circle><circle r="5" cx="1307.26" cy="96.07" fill="#8f949b"></circle><circle r="5" cx="1252.82" cy="212.27" fill="#8f949b"></circle><circle r="5" cx="1303.36" cy="556.9" fill="#8f949b"></circle><circle r="5" cx="1308.29" cy="662.2" fill="#8f949b"></circle><circle r="5" cx="1396.36" cy="41.83" fill="#8f949b"></circle><circle r="5" cx="1389.62" cy="223.24" fill="#8f949b"></circle><circle r="5" cx="1441.82" cy="359.22" fill="#8f949b"></circle><circle r="5" cx="1396.31" cy="535.35" fill="#8f949b"></circle><circle r="5" cx="1548.62" cy="-53.87" fill="#8f949b"></circle><circle r="5" cx="1586.96" cy="71.42" fill="#8f949b"></circle><circle r="5" cx="1563.75" cy="199.03" fill="#8f949b"></circle><circle r="5" cx="1584.97" cy="373.72" fill="#8f949b"></circle><circle r="5" cx="1537.72" cy="532.42" fill="#8f949b"></circle><circle r="5" cx="1552.75" cy="658.33" fill="#8f949b"></circle></g><defs><mask id="SvgjsMask1006"><rect width="1440" height="560" fill="#ffffff"></rect></mask><radialGradient id="SvgjsRadialGradient1007"><stop stop-color="#ffffff" offset="0.1"></stop><stop stop-color="rgba(31, 41, 55, 1)" offset="0.2"></stop><stop stop-color="rgba(31, 41, 55, 0)" offset="1"></stop></radialGradient></defs></svg>